<?xml version="1.0" encoding="UTF-8" standalone="no"?>
<!-- Created with Inkscape (http://www.inkscape.org/) -->

<svg
   xmlns:dc="http://purl.org/dc/elements/1.1/"
   xmlns:cc="http://creativecommons.org/ns#"
   xmlns:rdf="http://www.w3.org/1999/02/22-rdf-syntax-ns#"
   xmlns:svg="http://www.w3.org/2000/svg"
   xmlns="http://www.w3.org/2000/svg"
   xmlns:sodipodi="http://sodipodi.sourceforge.net/DTD/sodipodi-0.dtd"
   xmlns:inkscape="http://www.inkscape.org/namespaces/inkscape"
   width="180"
   height="180"
   id="svg1650"
   version="1.1"
   inkscape:version="0.48.4 r9939"
   sodipodi:docname="logo.svg"
   inkscape:export-filename="logo-180.png"
   inkscape:export-xdpi="90"
   inkscape:export-ydpi="90">
  <defs
     id="defs1652" />
  <sodipodi:namedview
     id="base"
     pagecolor="#ffffff"
     bordercolor="#666666"
     borderopacity="1.0"
     inkscape:pageopacity="0.0"
     inkscape:pageshadow="2"
     inkscape:zoom="0.98675622"
     inkscape:cx="-16.640623"
     inkscape:cy="32.109375"
     inkscape:document-units="px"
     inkscape:current-layer="layer1"
     showgrid="false"
     fit-margin-top="0"
     fit-margin-left="0"
     fit-margin-right="0"
     fit-margin-bottom="0"
     inkscape:window-width="1187"
     inkscape:window-height="919"
     inkscape:window-x="158"
     inkscape:window-y="72"
     inkscape:window-maximized="0" />
  <metadata
     id="metadata1655">
    <rdf:RDF>
      <cc:Work
         rdf:about="">
        <dc:format>image/svg+xml</dc:format>
        <dc:type
           rdf:resource="http://purl.org/dc/dcmitype/StillImage" />
        <dc:title />
      </cc:Work>
    </rdf:RDF>
  </metadata>
  <g
     inkscape:label="Layer 1"
     inkscape:groupmode="layer"
     id="layer1"
     transform="translate(-118.99908,-479.87888)">
    <path
       style="fill:#000000;fill-opacity:1;stroke:none"
       d="m 236.15857,499.23041 c -0.2342,0.002 -0.47442,0.0131 -0.71307,0.0298 -9.50502,1.47618 -14.73126,10.51954 -15.48855,18.49424 -1.10661,7.2363 2.43759,16.53708 11.26817,18.15854 1.28086,0.21942 2.61179,0.11914 3.86384,-0.18651 10.63356,-3.20817 15.39217,-14.53949 13.85513,-23.9254 -0.44681,-6.06198 -5.52562,-12.65402 -12.78552,-12.57073 z m -40.29676,0.38794 c -5.91018,0.13054 -10.51408,5.52388 -11.4506,10.59373 -1.97428,10.04447 3.10391,22.52479 14.73404,25.70096 1.08935,0.21317 2.21614,0.23513 3.3166,0.082 7.86072,-1.17874 11.19077,-9.10854 10.86188,-15.5101 -0.23659,-8.44454 -5.1118,-18.20883 -14.85839,-20.58316 -0.89092,-0.21258 -1.75923,-0.30215 -2.60353,-0.2835 z m 66.05021,28.52845 c -10.22424,0.55038 -17.23379,9.72922 -18.23305,18.30029 -1.35306,6.18165 2.30966,14.4496 10.14882,14.94312 10.93067,-0.12123 18.38755,-10.63038 18.69737,-19.673 0.6914,-5.98053 -3.22401,-13.2402 -10.61314,-13.57041 z m -89.49032,2.03668 c -4.34981,-0.0336 -8.62785,2.31064 -10.04933,6.28909 -3.79226,10.64244 3.8231,24.12102 16.35087,26.35749 5.22846,0.80503 9.82255,-2.80769 11.11893,-7.1545 2.74736,-9.29736 -2.89562,-20.09292 -12.44558,-24.31335 -1.55586,-0.78564 -3.27282,-1.16556 -4.97489,-1.17873 z m 45.8355,19.08362 c -8.52751,0.0164 -17.18872,3.91 -22.71048,9.70595 -5.96389,6.75544 -10.84934,14.61671 -12.76063,23.14206 -2.322,6.13696 2.94073,13.19959 10.23172,13.24215 8.77146,0.21924 16.30994,-5.20028 25.0321,-5.60273 7.40003,-1.01501 14.02608,2.44825 20.67903,4.71496 5.66458,2.17992 13.49204,1.34452 16.38403,-4.14051 2.27482,-5.59079 -1.07349,-11.55223 -3.84726,-16.51726 -5.65738,-8.05887 -11.71826,-16.52879 -20.99412,-21.56046 -3.71802,-2.07356 -7.84983,-2.99214 -12.01439,-2.98416 z"
       id="path1575"
       inkscape:connector-curvature="0" />
    <path
       inkscape:connector-curvature="0"
       style="font-size:medium;font-style:normal;font-variant:normal;font-weight:normal;font-stretch:normal;text-indent:0;text-align:start;text-decoration:none;line-height:normal;letter-spacing:normal;word-spacing:normal;text-transform:none;direction:ltr;block-progression:tb;writing-mode:lr-tb;text-anchor:start;baseline-shift:baseline;color:#000000;fill:#686868;fill-opacity:1;stroke:none;stroke-width:4;marker:none;visibility:visible;display:inline;overflow:visible;enable-background:accumulate;font-family:Sans;-inkscape-font-specification:Sans"
       d="m 142.73829,486.06162 -1.03125,1.03125 c -1.77731,0.70374 -3.43233,1.95975 -5.21875,2.625 -3.34829,1.57416 -6.59783,3.49742 -10,4.84375 -2.29462,-0.38113 -0.7347,3.1018 -1.1875,4.5625 l 0,130.5 c 2.85533,-0.0882 5.14493,2.18614 7.75,3.15625 2.87245,1.35045 5.67425,2.93508 8.5625,4.21875 l 0.0937,0.0937 c 0.69563,1.8129 2.01073,3.46389 2.6875,5.28125 1.57416,3.34829 3.49742,6.62908 4.84375,10.03125 -0.38113,2.29462 3.1018,0.7347 4.5625,1.1875 l 130.5,0 c -0.0882,-2.85533 2.18614,-5.14493 3.15625,-7.75 1.35045,-2.87245 2.93508,-5.7055 4.21875,-8.59375 l 1.125,-1.125 0,-148.0625 -2,-2 -148.0625,0 z m -2,3.8125 0,144.4375 -12.4375,-7.6875 0,-129.0625 12.4375,-7.6875 z m 4,0.1875 144.0625,0 0,144.0625 -144.0625,0 0,-144.0625 z m -0.1875,148.0625 144.4375,0 -7.6875,12.46875 -129.0625,0 -7.6875,-12.46875 z"
       id="rect2983" />
    <path
       inkscape:connector-curvature="0"
       d="m 248.92424,622.96966 c -2.56819,-0.0379 -5.032,0.26547 -7.29575,0.84455 -7.41318,-10.29213 -25.08391,-15.73284 -41.91523,-12.32401 -8.4896,1.71682 -15.29389,5.39258 -19.66482,10.06313 l -4.60361,-1.65701 c 5.77137,-6.2838 14.86115,-11.23587 26.22991,-13.53468 23.42468,-4.74348 48.08889,3.47155 56.87859,18.4882 -2.81393,-1.14795 -6.09756,-1.82913 -9.62909,-1.88018"
       id="path2704"
       style="fill:#000000;fill-opacity:1;fill-rule:nonzero;stroke:none" />
  </g>
</svg>
